<svg xmlns="http://www.w3.org/2000/svg" width="17" height="13"><path fill="#3c4042" d="M16.78 1.5l-1.574 1.499v.25c0 .273-.046.536-.113.79-.037 2.063-.726 4.8-3.559 6.96-5.571 4.248-11.54.5-11.54.5 4.72 0 4.72-1.5 4.72-1.5-1.049 0-3.147-2-3.147-2 .525.5 1.574 0 1.574 0-2.623-1.5-2.623-3-2.623-3 .524.5 1.574 0 1.574 0-2.623-2-1.05-4.5-1.05-4.5.525 2.5 7.345 3.5 7.345 3.5l.086-.042C8.42 3.73 8.387 3.243 8.387 3c0-1.796 1.526-3 3.41-3 1.036 0 1.953.45 2.578 1.146L14.682 1l1.573-1-1.049 2z"/><path fill="#cf38ef" d="M16.78 1.5l-1.574 1.499v.25c0 .273-.046.536-.113.79-.037 2.063-.726 4.8-3.559 6.96-5.571 4.248-11.54.5-11.54.5 4.72 0 4.72-1.5 4.72-1.5-1.049 0-3.147-2-3.147-2 .525.5 1.574 0 1.574 0-2.623-1.5-2.623-3-2.623-3 .524.5 1.574 0 1.574 0-2.623-2-1.05-4.5-1.05-4.5.525 2.5 7.345 3.5 7.345 3.5l.086-.042C8.42 3.73 8.387 3.243 8.387 3c0-1.796 1.526-3 3.41-3 1.036 0 1.953.45 2.578 1.146L14.682 1l1.573-1-1.049 2z"/></svg>