<svg xmlns="http://www.w3.org/2000/svg" width="15" height="15"><path fill="#3c4042" d="M1.71.499h11.891c.772 0 1.399.597 1.399 1.334v11.332c0 .736-.627 1.334-1.399 1.334H1.711c-.773 0-1.4-.598-1.4-1.334V1.833c0-.737.627-1.334 1.4-1.334zm3.318 5.599h-1.99v5.904h1.99zm-.111-1.612c-.012-.564-.383-.992-.986-.992s-.997.428-.997.992c0 .55.382.992.974.992h.011c.615 0 .998-.441.998-.992zm3.816 7.516V8.818c0-.17.013-.34.068-.462.149-.34.488-.693 1.057-.693.745 0 .978.524.978 1.29v3.05h2.06v-3.27c0-1.751-.951-2.727-2.306-2.727-1.093 0-1.583.552-1.857.94V6.14H6.608c.027.535 0 5.862 0 5.862z"/><path fill="#cf38ef" d="M1.71.499h11.891c.772 0 1.399.597 1.399 1.334v11.332c0 .736-.627 1.334-1.399 1.334H1.711c-.773 0-1.4-.598-1.4-1.334V1.833c0-.737.627-1.334 1.4-1.334zm3.318 5.599h-1.99v5.904h1.99zm-.111-1.612c-.012-.564-.383-.992-.986-.992s-.997.428-.997.992c0 .55.382.992.974.992h.011c.615 0 .998-.441.998-.992zm3.816 7.516V8.818c0-.17.013-.34.068-.462.149-.34.488-.693 1.057-.693.745 0 .978.524.978 1.29v3.05h2.06v-3.27c0-1.751-.951-2.727-2.306-2.727-1.093 0-1.583.552-1.857.94V6.14H6.608c.027.535 0 5.862 0 5.862z"/></svg>