<svg xmlns="http://www.w3.org/2000/svg" width="16" height="15"><path fill="#3c4042" d="M7.963-.001c4.346 0 7.87 3.358 7.87 7.5 0 4.141-3.524 7.5-7.87 7.5-4.345 0-7.869-3.359-7.869-7.5 0-4.142 3.524-7.5 7.87-7.5zm-6.295 7.5a5.81 5.81 0 001.435 3.813c.696-1.099 2.38-3.21 5.42-4.023a30.29 30.29 0 00-.61-1.172c-2.873 1.062-5.037 1.13-6.235 1.04a5.81 5.81 0 00-.01.342zm6.295 6c.902 0 1.759-.18 2.534-.506-.316-1.65-.859-3.227-1.487-4.655-1.782.467-3.64 1.547-5.033 3.804A6.46 6.46 0 007.963 13.5zM5.276 2.07c-1.697.765-2.978 2.231-3.43 4.007 1.6.015 3.73-.247 5.55-.869a31.304 31.304 0 00-2.12-3.138zm7.507 1.567a26.204 26.204 0 01-3.629 1.976c.259.482.493.958.703 1.42 1.268-.153 2.728-.083 4.4.326a5.816 5.816 0 00-1.474-3.722zm-1.167 8.748c1.373-.934 2.336-2.381 2.581-4.048-.773-.183-2.23-.434-3.883-.243.872 2.159 1.22 3.851 1.302 4.291zM7.963 1.498c-.515 0-1.015.06-1.494.17A21.46 21.46 0 018.644 4.71c1.642-.74 2.71-1.529 3.202-1.934a6.466 6.466 0 00-3.883-1.277z"/><path fill="#cf38ef" d="M7.963-.001c4.346 0 7.87 3.358 7.87 7.5 0 4.141-3.524 7.5-7.87 7.5-4.345 0-7.869-3.359-7.869-7.5 0-4.142 3.524-7.5 7.87-7.5zm-6.295 7.5a5.81 5.81 0 001.435 3.813c.696-1.099 2.38-3.21 5.42-4.023a30.29 30.29 0 00-.61-1.172c-2.873 1.062-5.037 1.13-6.235 1.04a5.81 5.81 0 00-.01.342zm6.295 6c.902 0 1.759-.18 2.534-.506-.316-1.65-.859-3.227-1.487-4.655-1.782.467-3.64 1.547-5.033 3.804A6.46 6.46 0 007.963 13.5zM5.276 2.07c-1.697.765-2.978 2.231-3.43 4.007 1.6.015 3.73-.247 5.55-.869a31.304 31.304 0 00-2.12-3.138zm7.507 1.567a26.204 26.204 0 01-3.629 1.976c.259.482.493.958.703 1.42 1.268-.153 2.728-.083 4.4.326a5.816 5.816 0 00-1.474-3.722zm-1.167 8.748c1.373-.934 2.336-2.381 2.581-4.048-.773-.183-2.23-.434-3.883-.243.872 2.159 1.22 3.851 1.302 4.291zM7.963 1.498c-.515 0-1.015.06-1.494.17A21.46 21.46 0 018.644 4.71c1.642-.74 2.71-1.529 3.202-1.934a6.466 6.466 0 00-3.883-1.277z"/></svg>