<svg xmlns="http://www.w3.org/2000/svg" width="15" height="15"><path fill="#3c4042" d="M1.71.499h11.891c.772 0 1.399.597 1.399 1.333v11.333c0 .737-.627 1.334-1.399 1.334H1.711c-.773 0-1.4-.597-1.4-1.334V1.832C.311 1.096.938.5 1.711.5zm3.318 5.599h-1.99v5.904h1.99zm-.111-1.613c-.012-.563-.383-.991-.986-.991s-.997.428-.997.991c0 .552.382.993.974.993h.011c.615 0 .998-.441.998-.993zm3.816 7.517V8.818c0-.17.013-.34.068-.461a1.122 1.122 0 011.057-.694c.745 0 .978.524.978 1.289v3.05h2.06V8.733c0-1.751-.951-2.727-2.306-2.727-1.093 0-1.583.552-1.857.94V6.14H6.608c.027.535 0 5.862 0 5.862z"/><path fill="#fff" d="M1.71.499h11.891c.772 0 1.399.597 1.399 1.333v11.333c0 .737-.627 1.334-1.399 1.334H1.711c-.773 0-1.4-.597-1.4-1.334V1.832C.311 1.096.938.5 1.711.5zm3.318 5.599h-1.99v5.904h1.99zm-.111-1.613c-.012-.563-.383-.991-.986-.991s-.997.428-.997.991c0 .552.382.993.974.993h.011c.615 0 .998-.441.998-.993zm3.816 7.517V8.818c0-.17.013-.34.068-.461a1.122 1.122 0 011.057-.694c.745 0 .978.524.978 1.289v3.05h2.06V8.733c0-1.751-.951-2.727-2.306-2.727-1.093 0-1.583.552-1.857.94V6.14H6.608c.027.535 0 5.862 0 5.862z"/></svg>